<?xml version="1.0" standalone="no"?>
<!DOCTYPE svg PUBLIC "-//W3C//DTD SVG 20010904//EN"
 "http://www.w3.org/TR/2001/REC-SVG-20010904/DTD/svg10.dtd">
<svg version="1.0" xmlns="http://www.w3.org/2000/svg"
 width="500.000000pt" height="500.000000pt" viewBox="0 0 500.000000 500.000000"
 preserveAspectRatio="xMidYMid meet">
<metadata>
Created by potrace 1.16, written by Peter Selinger 2001-2019
</metadata>
<g transform="translate(0.000000,500.000000) scale(0.100000,-0.100000)"
fill="#000000" stroke="none">
<path d="M920 3583 c-89 -9 -139 -24 -145 -43 -3 -11 -5 -64 -3 -119 1 -55 0
-102 -2 -105 -3 -2 -56 -9 -119 -15 -169 -16 -168 -25 4 -42 79 -8 230 -9 454
-5 332 5 411 11 411 26 0 9 -46 15 -172 26 l-78 6 0 119 c0 105 -2 119 -18
128 -41 22 -226 35 -332 24z"/>
<path d="M770 3171 c0 -91 10 -107 70 -120 67 -14 115 -14 128 2 5 6 14 32 19
57 7 38 13 45 34 48 23 3 27 -2 43 -59 l17 -62 70 7 c39 3 80 11 90 17 27 14
39 50 39 115 l0 55 -72 -7 c-40 -4 -122 -8 -183 -8 -60 0 -143 4 -182 8 l-73
7 0 -60z"/>
<path d="M615 3011 c-3 -6 1 -24 10 -42 9 -17 23 -62 31 -101 22 -103 17 -109
-151 -194 l-140 -72 -18 -103 c-22 -127 -23 -160 -3 -175 13 -9 16 -32 16
-113 0 -93 -2 -101 -19 -101 -32 0 -52 -12 -61 -36 -6 -14 -19 -24 -37 -27
l-28 -4 27 -2 c24 -1 27 -4 19 -24 -5 -14 -5 -30 1 -40 5 -9 7 -21 3 -26 -3
-5 -1 -12 5 -16 6 -4 7 -12 1 -24 -13 -23 16 -41 54 -34 21 4 26 2 23 -8 -3
-8 -25 -16 -54 -20 -35 -4 -17 -6 61 -7 123 -2 427 18 435 28 3 4 22 10 42 13
26 4 38 2 42 -8 8 -21 -3 -24 -100 -31 -110 -7 -155 -20 -152 -42 2 -10 -6
-18 -22 -22 -20 -5 -22 -7 -8 -12 10 -4 15 -14 11 -27 -4 -15 1 -20 24 -24 27
-4 27 -4 2 -6 -24 -1 -25 -4 -22 -43 2 -26 -2 -45 -9 -50 -9 -5 -8 -8 5 -8 9
0 17 -5 17 -12 0 -9 3 -9 12 0 17 17 38 15 38 -3 0 -10 -10 -15 -30 -15 -16 0
-30 -4 -30 -8 0 -5 -19 -12 -42 -18 -33 -7 -44 -14 -46 -31 -3 -17 -11 -23
-30 -24 -24 -2 -24 -2 -4 -6 26 -5 30 -23 5 -24 -12 0 -7 -5 12 -14 23 -10 26
-15 14 -20 -15 -6 -18 -52 -4 -74 3 -6 0 -11 -7 -11 -8 -1 -6 -6 5 -15 12 -8
31 -11 53 -8 29 5 33 3 28 -11 -4 -10 -12 -15 -18 -13 -6 3 -29 1 -51 -3 -34
-6 -27 -8 40 -9 126 -2 438 19 459 31 11 5 76 13 145 16 99 5 115 8 76 13
l-50 6 50 1 c78 3 218 -16 226 -30 7 -10 11 -10 21 0 17 17 45 15 45 -3 0 -11
-11 -15 -40 -15 -22 0 -37 -3 -34 -7 16 -15 427 9 562 33 86 15 352 25 332 12
-7 -5 -1 -8 16 -8 15 0 27 -5 27 -12 0 -9 3 -9 12 0 17 17 45 15 52 -3 4 -12
-4 -15 -41 -15 -25 0 -44 -3 -40 -6 16 -16 400 5 567 31 104 17 359 27 338 14
-9 -6 -4 -9 15 -9 15 0 27 -5 27 -12 0 -9 3 -9 12 0 17 17 48 15 48 -3 0 -11
-11 -15 -42 -15 -23 0 -38 -3 -35 -7 16 -15 399 6 562 32 50 7 169 17 265 20
96 4 179 10 183 14 5 5 28 6 53 3 31 -3 44 -1 44 8 0 9 4 9 13 2 6 -5 62 -13
123 -17 110 -7 112 -7 127 16 15 24 38 126 41 184 3 35 -10 55 -33 55 -14 0
-17 11 -16 78 0 42 4 82 8 89 4 7 -1 18 -14 26 -30 21 -8 30 55 22 104 -13
110 -4 131 205 2 19 -1 41 -7 48 -12 14 -211 16 -292 3 -69 -12 -87 -5 -75 25
9 27 7 72 -5 92 -4 7 -31 12 -68 12 l-61 0 7 61 c10 85 13 89 57 90 66 2 85
12 59 30 -13 9 -13 10 0 8 8 -1 26 -1 40 0 l25 2 -25 14 c-23 13 -23 14 -5 15
11 1 14 4 7 7 -6 2 -10 9 -6 14 3 5 -5 10 -18 10 -19 1 -19 2 -4 6 15 4 17 12
13 44 -4 30 -1 41 11 49 15 8 14 9 -5 10 -13 0 -23 4 -23 10 0 5 -13 7 -30 4
-24 -5 -30 -3 -30 11 0 13 8 16 34 14 19 -2 38 0 42 4 4 4 3 7 -2 7 -5 0 -48
5 -96 10 -113 13 -351 13 -453 1 -44 -5 -107 -10 -140 -11 -43 -1 -54 -4 -40
-10 29 -12 -127 -2 -288 19 -102 14 -361 15 -457 2 -41 -6 -102 -10 -135 -11
-42 0 -56 -3 -45 -10 10 -6 -1 -8 -35 -5 -27 2 -81 7 -120 10 -38 2 -104 9
-145 15 -97 13 -343 14 -445 1 -44 -5 -107 -10 -140 -11 -33 -1 -52 -4 -43 -8
9 -4 -46 -7 -122 -8 -77 0 -140 3 -140 8 0 4 19 8 43 9 33 1 24 4 -48 18 -49
9 -109 27 -132 39 -38 20 -42 26 -49 68 -4 26 -4 89 -1 141 7 117 2 121 -98
88 -39 -13 -123 -34 -188 -46 l-119 -22 7 -132 c7 -123 6 -133 -11 -139 -25
-10 -36 8 -58 90 l-17 69 -142 87 c-208 127 -214 130 -222 119z m2495 -682 l0
-160 33 34 c73 78 210 54 237 -41 5 -20 10 -103 10 -184 l0 -148 25 0 c14 0
25 -4 25 -10 0 -6 -50 -10 -131 -10 -84 0 -128 4 -124 10 3 6 13 10 21 10 12
0 14 29 14 173 0 94 -4 178 -8 185 -15 22 -56 7 -77 -28 -16 -28 -20 -58 -23
-182 -4 -146 -4 -148 17 -148 11 0 21 -4 21 -10 0 -6 -48 -10 -125 -10 -77 0
-125 4 -125 10 0 6 11 10 25 10 l25 0 0 320 0 320 -25 0 c-14 0 -25 5 -25 10
0 6 42 10 105 10 l105 0 0 -161z m546 119 c8 -8 17 -31 21 -51 5 -31 1 -40
-25 -67 -37 -37 -86 -40 -126 -9 -21 16 -26 29 -26 64 0 60 35 89 99 82 23 -3
49 -11 57 -19z m-1747 -213 c33 -17 41 -33 41 -86 0 -52 -27 -79 -79 -79 -30
0 -44 6 -55 22 -24 35 -20 67 10 78 33 13 26 35 -11 35 -19 0 -35 -9 -49 -28
-19 -26 -21 -44 -24 -188 l-3 -159 30 0 c17 0 31 -4 31 -10 0 -6 -53 -10 -140
-10 -87 0 -140 4 -140 10 0 6 11 10 25 10 l25 0 0 195 0 195 -25 0 c-14 0 -25
5 -25 10 0 6 43 10 110 10 l110 0 0 -32 0 -32 16 23 c32 45 103 62 153 36z
m395 -6 c55 -26 67 -63 74 -225 3 -79 9 -147 14 -150 14 -9 38 16 38 40 0 11
5 28 11 36 8 11 9 3 4 -30 -4 -28 -15 -54 -31 -70 -21 -22 -33 -25 -89 -25
-53 0 -68 4 -89 24 l-25 24 -33 -28 c-28 -24 -38 -27 -85 -23 -66 6 -105 32
-117 81 -12 47 7 93 48 114 16 9 64 18 106 22 l75 6 -1 76 c-2 115 -8 131 -47
127 -24 -2 -33 -8 -35 -26 -2 -13 3 -25 12 -28 10 -4 16 -18 16 -39 0 -46 -41
-79 -89 -71 -45 7 -53 16 -61 68 -8 53 15 82 81 104 54 17 182 13 223 -7z
m470 10 c55 -15 96 -59 96 -102 0 -68 -62 -108 -121 -76 -39 20 -49 99 -13 99
11 0 14 9 12 33 -3 28 -7 32 -35 35 -54 5 -67 -28 -71 -178 -4 -146 8 -193 55
-211 59 -22 132 20 149 87 3 13 11 24 16 24 14 0 1 -48 -23 -82 -40 -56 -136
-81 -225 -59 -103 26 -147 89 -148 211 0 58 5 84 22 117 47 89 172 134 286
102z m896 -204 l0 -205 25 0 c14 0 25 -4 25 -10 0 -6 -52 -10 -135 -10 -83 0
-135 4 -135 10 0 6 11 10 25 10 l25 0 0 195 0 195 -25 0 c-14 0 -25 5 -25 10
0 6 43 10 110 10 l110 0 0 -205z"/>
</g>
</svg>
